# xmcd
#
# Track frame offsets:
#	150
#	4949
#	24261
#	40235
#	53734
#	73383
#	88540
#	99502
#	102811
#	119245
#	132680
#	148108
#	151107
#	161981
#	174107
#	188578
#	216228
#	232662
#	236261
#	256617
#	274079
#	287016
#
# Disc length: 4280 seconds
#
# Revision: 2
# Processed by: cddbd v1.5.1PL2 Copyright (c) Steve Scherf et al.
# Submitted via: audiograbber 1.83.01
#
DISCID=2d10b616
DTITLE=Score - Refugium
DYEAR=2006
DGENRE=Hip-Hop
TTITLE0=Intro
TTITLE1=Kein Kompromiss
TTITLE2=Nicht allein
TTITLE3=Hirnamputiert
TTITLE4=Gesprengte Ketten
TTITLE5=Anlagetheoretiker mit Schusetta
TTITLE6=Made 4 Eacht Other
TTITLE7=Zeitgeist (Skit)
TTITLE8=An Demenz erkrankt mit MorPheus
TTITLE9=Refugium mit Sebstar and Corinna
TTITLE10=Do You Remember mit Schusetta and Juda$
TTITLE11=Die Zukunft (Skit)
TTITLE12=Gegenwaertig
TTITLE13=Kuschelrock
TTITLE14=Sozialneid
TTITLE15=Zum Vorgeschmack mit Triggah, Deelah, Koozy, Tirok, Nico, H aka N and I!
TTITLE15=!usion
TTITLE16=Spittin the Real mit Sebstar
TTITLE17=Mordswut (Skit)
TTITLE18=Selbstjustiz RMX
TTITLE19=An den P... mit Supreme and Kerosin
TTITLE20=Liebeserklaerung Pt. II mit Koozy
TTITLE21=Outro
EXTD=Erhältlich auf www.Untergrundrap.de\nArtistpage: www.TBS-Mob.de
EXTT0=
EXTT1=
EXTT2=
EXTT3=
EXTT4=
EXTT5=
EXTT6=
EXTT7=
EXTT8=
EXTT9=
EXTT10=
EXTT11=
EXTT12=
EXTT13=
EXTT14=
EXTT15=
EXTT16=
EXTT17=
EXTT18=
EXTT19=
EXTT20=
EXTT21=
PLAYORDER=
